<svg xmlns="http://www.w3.org/2000/svg" width="191.1" height="31" viewBox="0 0 191.1 31"><defs><clipPath id="a"><path fill="#fff" d="M106.9 35.1V24.9h114.2v10.2zm5.13-6.78v-1.93l-.85-.25c-.36-.1-.77-.14-1.23-.14-.4 0-.75.04-1.1.13-.34.08-.64.22-.88.4a2.03 2.03 0 0 0-.8 1.73 2 2 0 0 0 .2 1c.13.25.31.46.53.61.21.16.45.29.73.37.27.1.52.17.8.25l.6.19c.18.07.35.15.49.25s.26.23.34.37c.09.14.13.33.13.54 0 .42-.13.72-.41.92-.29.2-.67.3-1.19.3-.27 0-.5-.03-.7-.08l-.4-.1c-.06-.02-.1-.04-.12-.07a.52.52 0 0 1-.04-.14l-.22-.96H107v1.88l.39.14a8.56 8.56 0 0 0 1.96.27c.4 0 .77-.04 1.13-.13.35-.07.65-.2.92-.4.26-.18.47-.42.63-.71.16-.3.23-.67.23-1.1 0-.39-.06-.73-.2-.98a2.1 2.1 0 0 0-.53-.64c-.23-.17-.45-.3-.73-.4-.27-.1-.52-.18-.8-.26l-.6-.2a1.7 1.7 0 0 1-.5-.24c-.16-.1-.28-.21-.36-.35a.97.97 0 0 1-.13-.51c0-.34.13-.61.37-.8.24-.2.61-.3 1.11-.3a2.5 2.5 0 0 1 .96.16c.05.03.08.09.11.2l.16.9zm6.7 5.6h5.76v-1.97h-.9l-.17.93c-.02.06-.03.09-.06.1-.01.02-.06.02-.11.02h-2.41v-2.52h2.73v-.93h-2.73v-2.46H123c.1 0 .16.04.19.14l.16.82.9.04v-1.92h-5.52v.7l.68.06c.07.02.13.03.15.06.01.03.02.07.02.15v5.77c0 .09-.01.13-.02.16-.02.03-.06.04-.15.05l-.68.08zm12.18-.03h5.76v-2.04h-.9l-.17 1.02c-.01.06-.02.09-.05.1l-.12.01h-2.4v-5.84c0-.08 0-.12.02-.15.02-.02.06-.03.15-.04l.9-.09v-.7h-3.18v.7l.68.07c.07.02.13.03.14.06.02.03.03.07.03.15v5.77c0 .09-.01.13-.03.16-.01.03-.06.04-.14.05l-.68.08zm12.06 0h3.86v-.68l-1.58-.09c-.07-.01-.13-.02-.14-.05-.02-.02-.03-.07-.03-.16v-2.46h2.7v-.93h-2.7v-2.43h2.12c.1 0 .16.04.19.14l.16.82.9.04v-1.92h-5.48v.7l.69.06c.07.02.12.03.14.06.01.03.03.07.03.15v5.77c0 .09-.02.13-.03.16-.02.03-.06.04-.14.05l-.69.08zm25.77-.47v-1.74h-.87l-.17.98c-.02.07-.03.11-.06.14-.01.03-.06.04-.11.06-.19.07-.4.1-.64.14-.25.03-.47.04-.7.04a2.3 2.3 0 0 1-1.83-.76c-.44-.51-.65-1.29-.65-2.3 0-.98.24-1.72.7-2.23a2.4 2.4 0 0 1 1.86-.76 3.24 3.24 0 0 1 1.22.2c.1.02.14.08.15.18l.19 1.03.9.07v-1.86c-.26-.2-.62-.34-1.05-.44-.42-.1-.86-.16-1.33-.16-.65 0-1.23.1-1.72.3a3.38 3.38 0 0 0-1.97 2.08 5.95 5.95 0 0 0-.03 3.24c.14.5.37.91.67 1.27a3 3 0 0 0 1.15.82c.47.18 1.04.28 1.7.28.48 0 .98-.04 1.45-.14.48-.1.87-.24 1.17-.44zm11.54.28a3.2 3.2 0 0 0 1.87-2.13 5.75 5.75 0 0 0 .01-3.2 3.63 3.63 0 0 0-.64-1.23 3 3 0 0 0-1.1-.82 3.72 3.72 0 0 0-1.62-.3c-.61 0-1.17.1-1.64.3a3.24 3.24 0 0 0-1.9 2.1 5.79 5.79 0 0 0-.03 3.2c.15.49.36.91.66 1.26.3.34.69.63 1.14.82.46.2 1.02.3 1.64.3a4 4 0 0 0 1.61-.3zm-3.3-1.45c-.44-.48-.66-1.23-.66-2.26 0-.5.06-.92.19-1.3.12-.36.3-.67.5-.91a2.31 2.31 0 0 1 1.8-.74c.72 0 1.27.25 1.69.73.41.48.6 1.21.6 2.2 0 .52-.05.98-.16 1.36-.12.38-.27.7-.49.93a1.9 1.9 0 0 1-.75.54c-.3.11-.63.17-.99.17-.72 0-1.3-.24-1.73-.72zm11.8 1.64h5.75v-2.04h-.9l-.16 1.02c-.02.06-.03.09-.06.1l-.11.01h-2.41v-5.84c0-.08.01-.12.03-.15 0-.02.05-.03.14-.04l.9-.09v-.7h-3.18v.7l.68.07c.07.02.13.03.14.06.02.03.03.07.03.15v5.77c0 .09-.01.13-.03.16-.01.03-.05.04-.14.05l-.68.08zm17.04-.19a3.2 3.2 0 0 0 1.87-2.13 5.75 5.75 0 0 0 .01-3.2 3.61 3.61 0 0 0-.64-1.23 3 3 0 0 0-1.11-.82 3.72 3.72 0 0 0-1.61-.3c-.61 0-1.17.1-1.64.3a3.24 3.24 0 0 0-1.9 2.1 5.79 5.79 0 0 0-.03 3.2c.15.49.36.91.66 1.26.3.34.69.63 1.14.82.46.2 1.01.3 1.64.3a4 4 0 0 0 1.61-.3zm-3.3-1.45c-.45-.48-.66-1.23-.66-2.26 0-.5.06-.92.18-1.3a2.31 2.31 0 0 1 2.3-1.65c.73 0 1.28.25 1.7.73.4.48.6 1.21.6 2.2 0 .52-.05.98-.16 1.36-.12.38-.27.7-.49.93a1.9 1.9 0 0 1-.75.54c-.3.11-.63.17-.99.17-.72 0-1.3-.24-1.74-.72zM221 33.87v-.67l-.66-.12a.58.58 0 0 1-.18-.05.37.37 0 0 1-.13-.16l-.64-1.63c-.1-.25-.19-.45-.27-.59a.84.84 0 0 0-.37-.32c.41-.17.77-.41 1.04-.74s.41-.76.41-1.33c0-.27-.04-.52-.11-.78-.07-.25-.2-.48-.39-.68a1.9 1.9 0 0 0-.74-.48 3.35 3.35 0 0 0-1.2-.18h-3.46v.7l.69.06c.07.02.12.03.14.06.01.03.03.07.03.16v5.76c0 .09-.02.13-.03.16-.02.03-.06.04-.14.06l-.69.07v.68h2.97v-.68l-.69-.09c-.07-.01-.13-.03-.14-.05-.02-.02-.03-.07-.03-.16v-2.26h.91c.19 0 .33.04.43.11.1.07.17.19.24.35l.81 2.03-.7.1v.67zm-4.59-4.15v-2.65h.73c.58 0 1.02.09 1.32.26.3.17.44.5.44.99 0 .28-.04.52-.12.7a.99.99 0 0 1-.37.43c-.16.1-.35.17-.54.21-.22.04-.43.06-.66.06z"/></clipPath></defs><path fill="#fff" d="M40.17 21.88c-2.09-3.21-2.31-4-2.41-4.1-.1-.08-.3.06-.32.06-.22.17-1.68 1.6-1.84 1.88-.07.1-.13.26-.15.4-.05.7.64.96.74 1.64.05.34.26.86-.28 1.32-2.03 1.35-4.81.92-5.08.89-1.27-.2-2.48-.68-3.58-1.35a11.6 11.6 0 0 1-3.94-3.67 18.21 18.21 0 0 1-1.83-3.84c.42-.75 4.43-6.96 5.83-8.15.61-.52 1.08-.36 1.2-.35.32.06.59.21.86.4l1.74 1.2a17.3 17.3 0 0 0 4.02 2.2c.36.12.73.21 1.11.27.41.06.77.05 1.18 0 .24-.03.55-.33.71-.47.34-.3.67-.65.94-1 .2-.28.46-.58.57-.92.04-.12.12-.35-.1-.32-.34.04-.7 0-1.02-.04a9.43 9.43 0 0 1-3.2-1.3c-1.04-.6-2.02-1.3-3-2-.57-.4-1.07-.78-1.78-.81a3.18 3.18 0 0 0-1.62.48 7.49 7.49 0 0 0-2.29 1.81 289 289 0 0 0-6.88 10.15l-.88-.34-2.56-.92c-2.35-.84-4.7-1.67-7.03-2.57-1.16-.44-2.3-.9-3.45-1.38l-1.53-.69c-.22-.1-.47-.2-.68-.34-.22-.15-.4-.36-.53-.59a3.15 3.15 0 0 1-.42-1.22 10.1 10.1 0 0 1 1.15-.58l.11-.04.56-.19a10.25 10.25 0 0 1 4.56-.37c1.47.23 2.82.8 4.02 1.66 1.28.92 2.43 2.08 3.87 2.78a4.11 4.11 0 0 0 2.52.42c.24-.04.55-.34.7-.47.34-.3.67-.65.94-1.01.21-.28.47-.58.57-.91.04-.12.12-.36-.1-.33-.31.04-.65.01-.97-.03-1.67-.28-3-1.5-4.27-2.52a12.84 12.84 0 0 0-2.08-1.43 10.26 10.26 0 0 0-7.12-.7c-1.8.47-3.43 1.42-4.77 2.68A9 9 0 0 0 .48 9.4c-.2.36-.3.75-.3 1.15.03.65.26 1.35.66 1.87.38.48 1 .69 1.55.93l1.88.8c2.77 1.14 5.58 2.16 8.4 3.16 1.12.4 2.25.79 3.36 1.2l1.12.4c.16.07.34.12.49.2l-.8 1.04-1.48 1.9c-.26.3-.51.63-.77.94l-.37.46-.03.04a.54.54 0 0 0-.06.07l-.35.42a37.68 37.68 0 0 1-4.29-2.05c-1.16-.67-2.3-1.4-3.38-2.2.91-.12 1.8-.36 2.66-.74.28-.13.53-.47.7-.7.04-.06.34-.52.16-.49-1.22.2-2.45.18-3.66 0-1-.15-1.97-.4-2.95-.67-.17-.05-.35.1-.47.2-.29.2-.56.48-.8.75a4.7 4.7 0 0 0-.64.9c-.07.11-.23.36-.12.48 1.08 1.31 2.46 2.4 3.83 3.4 1.41 1 2.9 1.92 4.45 2.71.85.44 1.73.8 2.6 1.2.14.06.3-.07.4-.14.26-.17.5-.38.7-.6.06-.06.13-.12.18-.19l.37-.4-.06.08.14-.15.06-.07.44-.5c.44-.52.88-1.04 1.3-1.56a179.3 179.3 0 0 0 3.86-4.9l.18-.24c.06.16.1.33.17.49.2.57.43 1.13.7 1.67a12.3 12.3 0 0 0 3.68 4.53c1.15.85 2.48 1.48 3.9 1.8.5.1 2.49.39 4.65-.09a8.22 8.22 0 0 0 4.7-3.2c.23-.3.45-.62.64-.95.14.14.7.6.87.67.37.1 1.58-.9 1.42-1.14zm-26.71 3.64zm-.06.06c-.18.19-.18.19 0 0zm3.05 1.94c-.16-.05-.3-.12-.47-.1l-.5.02c-.33.02-.66.05-1 .06-.64.02-1.29.02-1.94.05-.63.02-1.27.05-1.9.1-.33 0-.65.05-.98.09-.4.05-.8.09-1.17.24a4.34 4.34 0 0 0-1.26 1.36c-.02.06-.16.3-.09.38.15.15.57.11.77.12.28.02.55.04.83.04l1.68.03 1.68.07c.55.02 1.08.1 1.61.16l.05.01c.2.02.36 0 .57-.05.23-.04.52-.3.68-.45.27-.25.51-.5.74-.8.08-.09.96-1.23.7-1.33zM26.52 2.6c.28.01.55.03.83.03.56 0 1.12.02 1.68.04l1.68.06c.55.02 1.08.1 1.61.17h.05c.2.03.36 0 .57-.04.23-.04.52-.31.68-.45.27-.25.51-.51.74-.8.1-.1.97-1.24.7-1.34-.15-.05-.3-.13-.46-.11-.17 0-.34.02-.5.03-.33.02-.66.05-1 .06l-1.94.04-1.9.1c-.33.02-.65.06-.98.1-.4.05-.8.08-1.17.24a4.37 4.37 0 0 0-1.26 1.36c-.02.05-.16.3-.09.38.14.16.56.12.76.13zM65.53 7l.48.33L54.47 25l-.48-.33z"/><path fill="#f19474" d="M81.12 14.23l-.16-.89c-.03-.11-.05-.17-.11-.2a2.5 2.5 0 0 0-.95-.17c-.5 0-.88.1-1.12.3a.99.99 0 0 0-.37.8c0 .2.04.37.13.52.08.14.2.25.36.35.14.1.3.18.5.24l.6.2c.28.08.54.17.8.27.28.1.5.22.73.4.22.16.39.37.53.63.14.25.2.6.2.99 0 .42-.07.79-.23 1.09-.16.3-.37.53-.63.72-.27.18-.57.32-.92.4a4.8 4.8 0 0 1-1.85.08 8.71 8.71 0 0 1-1.24-.23L77 19.6v-1.88h.91l.22.96c.01.07.02.12.04.14.01.03.06.05.13.07l.4.1c.18.05.42.07.7.07.5 0 .9-.1 1.18-.3.28-.2.41-.49.41-.91a1.03 1.03 0 0 0-.47-.9c-.14-.1-.31-.2-.5-.26a5.85 5.85 0 0 0-.6-.18l-.8-.26a2.5 2.5 0 0 1-.72-.37c-.22-.15-.4-.36-.53-.62a2 2 0 0 1-.2-.99 2.03 2.03 0 0 1 .8-1.72c.24-.19.54-.33.88-.41.35-.09.7-.13 1.1-.13.46 0 .87.04 1.23.14l.85.25v1.93zm7.6 4.97l.7-.08c.08-.01.12-.02.14-.05a.33.33 0 0 0 .02-.16v-5.77a.34.34 0 0 0-.02-.15c-.02-.03-.08-.04-.15-.06l-.68-.07v-.7h5.53v1.93l-.91-.04-.16-.82c-.03-.1-.08-.14-.19-.14h-2.16v2.46h2.73v.93h-2.73V19h2.4c.06 0 .1 0 .12-.02.03-.01.04-.04.06-.1l.17-.93h.9v1.97h-5.76zm12.2 0l.68-.08c.08-.01.13-.02.14-.05a.33.33 0 0 0 .03-.16v-5.77a.33.33 0 0 0-.03-.15c-.01-.03-.07-.04-.14-.06l-.69-.07v-.7h3.18v.7l-.9.09c-.08.01-.12.02-.14.04a.34.34 0 0 0-.03.15v5.84h2.41l.12-.01c.02-.01.04-.04.05-.1l.17-1.02h.9v2.04h-5.76zm12.05 0l.69-.08c.08-.01.12-.02.14-.05a.33.33 0 0 0 .03-.16v-5.77a.33.33 0 0 0-.03-.15c-.02-.03-.07-.04-.14-.06l-.69-.07v-.7h5.49v1.93l-.91-.04-.16-.82c-.03-.1-.09-.14-.19-.14h-2.12v2.43h2.7v.93h-2.7v2.46c0 .09.02.14.03.16.01.03.07.04.14.05l1.58.09v.68h-3.86zm25.8.22c-.3.2-.69.34-1.17.44-.47.1-.97.14-1.46.14-.65 0-1.22-.1-1.7-.28a3 3 0 0 1-1.8-2.1 5.95 5.95 0 0 1 .03-3.23 3.38 3.38 0 0 1 1.96-2.08c.49-.2 1.07-.3 1.72-.3.47 0 .9.06 1.33.16.43.1.79.24 1.06.44v1.86l-.91-.07-.19-1.03c-.01-.1-.06-.16-.16-.18a3.24 3.24 0 0 0-1.21-.2c-.78 0-1.4.25-1.86.76-.46.51-.7 1.25-.7 2.22 0 1.02.21 1.8.65 2.3.44.52 1.06.77 1.83.77.23 0 .45-.01.7-.04a2.7 2.7 0 0 0 .75-.2c.03-.03.04-.07.06-.14l.17-.98h.87v1.74zm9.9.58c-.63 0-1.18-.1-1.64-.3-.45-.2-.84-.48-1.14-.82-.3-.35-.51-.77-.65-1.27a5.79 5.79 0 0 1 .03-3.2 3.24 3.24 0 0 1 1.9-2.1c.46-.18 1.02-.3 1.63-.3.63 0 1.17.1 1.61.31a3 3 0 0 1 1.11.82c.29.36.5.77.64 1.23a5.75 5.75 0 0 1-.01 3.2 3.2 3.2 0 0 1-1.87 2.14 4 4 0 0 1-1.6.3zm.05-1.03c.35 0 .68-.06.98-.17.3-.11.54-.3.75-.54.22-.24.37-.55.49-.93.11-.38.17-.83.17-1.36 0-.99-.2-1.72-.61-2.2a2.1 2.1 0 0 0-1.7-.73 2.31 2.31 0 0 0-1.78.74 2.7 2.7 0 0 0-.51.92c-.13.37-.19.8-.19 1.29 0 1.03.22 1.78.66 2.26.44.48 1 .72 1.74.72zm10.06.23l.68-.08c.09-.01.13-.02.14-.05a.32.32 0 0 0 .03-.16v-5.77a.32.32 0 0 0-.03-.15c-.01-.03-.07-.04-.14-.06l-.68-.07v-.7h3.17v.7l-.9.09c-.08.01-.12.02-.14.04a.32.32 0 0 0-.02.15v5.84h2.4l.12-.01c.03-.01.04-.04.06-.1l.17-1.02h.9v2.04h-5.76zm15.43.8c-.63 0-1.18-.1-1.64-.3-.45-.2-.84-.48-1.14-.82-.3-.35-.51-.77-.65-1.27a5.79 5.79 0 0 1 .03-3.2 3.24 3.24 0 0 1 1.9-2.1c.46-.18 1.02-.3 1.63-.3.63 0 1.17.1 1.61.31a3 3 0 0 1 1.11.82c.29.36.5.77.64 1.23a5.75 5.75 0 0 1-.01 3.2 3.2 3.2 0 0 1-1.87 2.14 4 4 0 0 1-1.6.3zm.04-1.03c.36 0 .69-.06.99-.17.3-.11.54-.3.75-.54.22-.24.37-.55.49-.93.11-.38.17-.83.17-1.36 0-.99-.2-1.72-.61-2.2a2.1 2.1 0 0 0-1.7-.73 2.31 2.31 0 0 0-1.78.74 2.7 2.7 0 0 0-.51.92c-.13.37-.19.8-.19 1.29 0 1.03.21 1.78.66 2.26.44.48 1 .72 1.73.72zm13.84.9v-.67l.71-.1-.8-2.03a.78.78 0 0 0-.25-.35.73.73 0 0 0-.43-.11h-.9v2.26c0 .09 0 .14.02.16.01.02.07.04.14.05l.69.09v.68h-2.97v-.68l.69-.07c.08-.02.12-.03.14-.06a.32.32 0 0 0 .03-.16v-5.76a.32.32 0 0 0-.03-.16c-.02-.03-.07-.04-.14-.06l-.69-.07v-.69h3.45c.48 0 .88.06 1.21.18.32.13.57.29.74.48.19.2.32.43.39.68.07.26.11.51.11.78 0 .57-.14 1-.41 1.33-.27.33-.63.57-1.04.74.17.08.28.18.37.32.08.14.17.34.27.6l.64 1.62c.04.09.09.13.13.16l.18.05.66.12v.67zm-.88-4.15c.23 0 .44-.02.66-.06.2-.04.38-.11.54-.21.15-.1.28-.24.37-.43.08-.18.13-.42.13-.7 0-.5-.15-.82-.45-1-.3-.16-.74-.25-1.32-.25h-.73v2.65z"/><path fill="none" stroke="#f19474" stroke-miterlimit="50" stroke-width=".2" d="M111.12 28.23l-.16-.89c-.03-.11-.05-.17-.11-.2a2.5 2.5 0 0 0-.95-.17c-.5 0-.88.1-1.12.3a.99.99 0 0 0-.37.8c0 .2.04.37.13.52.08.14.2.25.36.35.14.1.3.18.5.24l.6.2c.28.08.54.17.8.27.28.1.5.22.73.4.22.16.39.37.53.63.14.25.2.6.2.99 0 .42-.07.79-.23 1.09-.16.3-.37.53-.63.72-.27.18-.57.32-.92.4a4.8 4.8 0 0 1-1.85.08 8.71 8.71 0 0 1-1.24-.23l-.39-.14v-1.88h.91l.22.96c.01.07.02.12.04.14.01.03.06.05.13.07l.4.1c.18.05.42.07.7.07.5 0 .9-.1 1.18-.3.28-.2.41-.49.41-.91a1.03 1.03 0 0 0-.47-.9c-.14-.1-.31-.2-.5-.26a5.85 5.85 0 0 0-.6-.18l-.8-.26a2.5 2.5 0 0 1-.72-.37c-.22-.15-.4-.36-.53-.62a2 2 0 0 1-.2-.99 2.03 2.03 0 0 1 .8-1.72c.24-.19.54-.33.88-.41.35-.09.7-.13 1.1-.13.46 0 .87.04 1.23.14l.85.25v1.93zm7.6 4.97l.7-.08c.08-.01.12-.02.14-.05a.33.33 0 0 0 .02-.16v-5.77a.34.34 0 0 0-.02-.15c-.02-.03-.08-.04-.15-.06l-.68-.07v-.7h5.53v1.93l-.91-.04-.16-.82c-.03-.1-.08-.14-.19-.14h-2.16v2.46h2.73v.93h-2.73V33h2.4c.06 0 .1 0 .12-.02.03-.01.04-.04.06-.1l.17-.93h.9v1.97h-5.76zm12.2 0l.68-.08c.08-.01.13-.02.14-.05a.33.33 0 0 0 .03-.16v-5.77a.33.33 0 0 0-.03-.15c-.01-.03-.07-.04-.14-.06l-.69-.07v-.7h3.18v.7l-.9.09c-.08.01-.12.02-.14.04a.34.34 0 0 0-.03.15v5.84h2.41l.12-.01c.02-.01.04-.04.05-.1l.17-1.02h.9v2.04h-5.76zm12.05 0l.69-.08c.08-.01.12-.02.14-.05a.33.33 0 0 0 .03-.16v-5.77a.33.33 0 0 0-.03-.15c-.02-.03-.07-.04-.14-.06l-.69-.07v-.7h5.49v1.93l-.91-.04-.16-.82c-.03-.1-.09-.14-.19-.14h-2.12v2.43h2.7v.93h-2.7v2.46c0 .09.01.14.03.16.01.03.07.04.14.05l1.58.09v.68h-3.86zm25.8.22c-.3.2-.69.34-1.17.44-.47.1-.97.14-1.46.14-.65 0-1.22-.1-1.7-.28a3 3 0 0 1-1.8-2.1 5.95 5.95 0 0 1 .03-3.23 3.38 3.38 0 0 1 1.96-2.08c.49-.2 1.07-.3 1.72-.3.47 0 .9.06 1.33.16.43.1.79.24 1.06.44v1.86l-.91-.07-.19-1.03c-.01-.1-.06-.16-.16-.18a3.24 3.24 0 0 0-1.21-.2c-.78 0-1.4.25-1.86.76-.46.51-.7 1.25-.7 2.22 0 1.02.21 1.8.65 2.3.44.52 1.06.77 1.83.77.23 0 .45-.01.7-.04a2.7 2.7 0 0 0 .75-.2c.03-.03.04-.07.06-.14l.17-.98h.87v1.74zm9.9.58c-.63 0-1.18-.1-1.64-.3-.45-.2-.84-.48-1.14-.82-.3-.35-.51-.77-.65-1.27a5.79 5.79 0 0 1 .03-3.2 3.24 3.24 0 0 1 1.9-2.1c.46-.18 1.02-.3 1.63-.3.63 0 1.17.1 1.61.31a3 3 0 0 1 1.11.82c.29.36.5.77.64 1.23a5.75 5.75 0 0 1-.01 3.2 3.2 3.2 0 0 1-1.87 2.14 4 4 0 0 1-1.6.3zm.05-1.03c.35 0 .68-.06.98-.17.3-.11.54-.3.75-.54.22-.24.37-.55.49-.93.11-.38.17-.83.17-1.36 0-.99-.2-1.72-.61-2.2a2.1 2.1 0 0 0-1.7-.73 2.31 2.31 0 0 0-1.78.74 2.7 2.7 0 0 0-.51.92c-.13.37-.19.8-.19 1.29 0 1.03.22 1.78.66 2.26.44.48 1 .72 1.74.72zm10.06.23l.68-.08c.09-.01.13-.02.14-.05a.32.32 0 0 0 .03-.16v-5.77a.32.32 0 0 0-.03-.15c-.01-.03-.07-.04-.14-.06l-.68-.07v-.7h3.17v.7l-.9.09c-.08.01-.12.02-.14.04a.32.32 0 0 0-.02.15v5.84h2.4l.12-.01c.03-.01.04-.04.06-.1l.17-1.02h.9v2.04h-5.76zm15.43.8c-.63 0-1.18-.1-1.64-.3-.45-.2-.84-.48-1.14-.82-.3-.35-.51-.77-.65-1.27a5.79 5.79 0 0 1 .03-3.2 3.24 3.24 0 0 1 1.9-2.1c.46-.18 1.02-.3 1.63-.3.63 0 1.17.1 1.61.31a3 3 0 0 1 1.11.82c.29.36.5.77.64 1.23a5.75 5.75 0 0 1-.01 3.2 3.2 3.2 0 0 1-1.87 2.14 4 4 0 0 1-1.6.3zm.04-1.03c.36 0 .69-.06.99-.17.3-.11.54-.3.75-.54.22-.24.37-.55.49-.93.11-.38.17-.83.17-1.36 0-.99-.2-1.72-.61-2.2a2.1 2.1 0 0 0-1.7-.73 2.31 2.31 0 0 0-1.78.74 2.7 2.7 0 0 0-.51.92c-.13.37-.19.8-.19 1.29 0 1.03.21 1.78.66 2.26.44.48 1 .72 1.73.72zm13.84.9v-.67l.71-.1-.8-2.03a.78.78 0 0 0-.25-.35.73.73 0 0 0-.43-.11h-.9v2.26c0 .09 0 .14.02.16.01.02.07.04.14.05l.69.09v.68h-2.97v-.68l.69-.07c.08-.02.12-.03.14-.06a.32.32 0 0 0 .03-.16v-5.76a.32.32 0 0 0-.03-.16c-.02-.03-.07-.04-.14-.06l-.69-.07v-.69h3.45c.48 0 .88.06 1.21.18.32.13.57.29.74.48.19.2.32.43.39.68.07.26.11.51.11.78 0 .57-.14 1-.41 1.33-.27.33-.63.57-1.04.74.17.08.28.18.37.32.08.14.17.34.27.6l.64 1.62c.04.09.09.13.13.16l.18.05.66.12v.67zm-.88-4.15c.23 0 .44-.02.66-.06.2-.04.38-.11.54-.21.15-.1.28-.24.37-.43.08-.18.13-.42.13-.7 0-.5-.15-.82-.45-1-.3-.16-.74-.25-1.32-.25h-.73v2.65z" clip-path="url(&quot;#a&quot;)" transform="translate(-30 -14)"/></svg>