<?xml version="1.0" encoding="UTF-8"?>
<!DOCTYPE svg PUBLIC "-//W3C//DTD SVG 1.1//EN" "http://www.w3.org/Graphics/SVG/1.1/DTD/svg11.dtd">
<!-- Creator: CorelDRAW X7 -->
<svg xmlns="http://www.w3.org/2000/svg" xml:space="preserve" width="297mm" height="279.13mm" version="1.1" shape-rendering="geometricPrecision" text-rendering="geometricPrecision" image-rendering="optimizeQuality" fill-rule="evenodd" clip-rule="evenodd"
viewBox="0 0 29700 27913"
 xmlns:xlink="http://www.w3.org/1999/xlink">
 <g id="Слой_x0020_1">
  <metadata id="CorelCorpID_0Corel-Layer"/>
  <g id="_431660544992">
   <g>
    <path fill="#515966" d="M17783 19252c-478,-502 -1059,-762 -1670,-762 -606,0 -1193,260 -1683,756l-1428 1428c-97,-54 -200,-102 -297,-151 -169,-85 -327,-163 -460,-248 -1386,-878 -2645,-2027 -3843,-3504 -569,-720 -956,-1326 -1228,-1913 363,-339 708,-684 1040,-1023 134,-133 267,-266 400,-405 1035,-1035 1035,-2373 0,-3401l-1283 -1283c-145,-146 -291,-297 -436,-442 -284,-297 -587,-599 -877,-872 -479,-478 -1054,-732 -1659,-732 -599,0 -1180,248 -1682,732l-1610 1610c-624,623 -975,1380 -1047,2252 -115,1392 296,2687 611,3540 763,2064 1913,3982 3613,6034 2070,2469 4564,4424 7408,5798 1090,521 2548,1126 4182,1235 103,6 206,12 303,12 1120,0 2058,-406 2790,-1204 6,-6 18,-19 24,-25 242,-290 521,-556 817,-841 206,-194 412,-399 612,-611 992,-1035 986,-2397 -13,-3395l-2584 -2585zm1519 4957c-181,188 -369,369 -569,563 -302,296 -623,599 -914,944 -454,484 -986,708 -1688,708 -73,0 -139,0 -212,-6 -1380,-91 -2669,-629 -3631,-1089 -2651,-1283 -4975,-3105 -6912,-5411 -1592,-1913 -2657,-3692 -3365,-5598 -430,-1156 -593,-2052 -521,-2899 43,-521 249,-957 624,-1332l1604 -1598c145,-139 375,-308 647,-308 261,0 478,163 630,314 284,267 557,545 847,842 145,151 297,302 448,454l1283 1283c460,460 460,847 0,1307 -139,139 -272,272 -406,411 -393,400 -768,781 -1174,1144 -12,12 -18,18 -30,31 -442,441 -363,883 -266,1174 6,18 12,30 18,48 339,817 811,1586 1543,2512 1308,1610 2681,2863 4201,3825 193,127 399,224 587,321 163,84 320,163 454,248 24,12 42,24 66,36 460,230 926,151 1301,-230l1610 -1610c145,-145 375,-321 636,-321 254,0 466,170 611,321l2596 2597c430,423 424,859 -18,1319z"/>
    <path fill="#515966" d="M20380 0c-5145,0 -9327,3710 -9327,8267 0,1749 629,3456 1779,4860 -218,418 -520,757 -895,999 -345,230 -515,635 -424,1035 91,399 412,690 817,750 793,109 2330,170 3765,-696 351,-211 466,-665 254,-1016 -212,-351 -666,-466 -1017,-255 -533,321 -1102,466 -1604,521 278,-351 496,-757 666,-1211 97,-260 36,-556 -151,-762 -1120,-1217 -1713,-2675 -1713,-4225 0,-3740 3516,-6784 7843,-6784 4328,0 7844,3044 7844,6784 0,3741 -3516,6785 -7844,6785 -726,0 -1446,-85 -2142,-254 -400,-97 -799,145 -896,544 -97,400 145,799 545,896 811,200 1646,303 2493,303 5145,0 9327,-3710 9327,-8268 6,-4563 -4176,-8273 -9320,-8273z"/>
    <path fill="#515966" d="M15816 8273c0,412 333,745 745,745l7637 0c412,0 745,-333 745,-745 0,-411 -333,-744 -745,-744l-7637 0c-412,0 -745,333 -745,744z"/>
    <path fill="#515966" d="M17208 6264l6343 0c411,0 744,-333 744,-744 0,-412 -333,-745 -744,-745l-6343 0c-411,0 -744,333 -744,745 0,411 333,744 744,744z"/>
    <path fill="#515966" d="M17208 11760l6343 0c411,0 744,-333 744,-745 0,-411 -333,-744 -744,-744l-6343 0c-411,0 -744,333 -744,744 0,412 333,745 744,745z"/>
   </g>
  </g>
  <g id="_431660548992">
  </g>
  <g id="_431660549248">
  </g>
  <g id="_431660549856">
  </g>
  <g id="_431660549728">
  </g>
  <g id="_431660552544">
  </g>
  <g id="_431660551488">
  </g>
  <g id="_431660551200">
  </g>
  <g id="_431660550688">
  </g>
  <g id="_431660551616">
  </g>
  <g id="_431660552160">
  </g>
  <g id="_431660554464">
  </g>
  <g id="_431660552608">
  </g>
  <g id="_431660553120">
  </g>
  <g id="_431660552576">
  </g>
  <g id="_431660553024">
  </g>
 </g>
</svg>
