<?xml version="1.0" encoding="UTF-8"?>
<!DOCTYPE svg PUBLIC "-//W3C//DTD SVG 1.1//EN" "http://www.w3.org/Graphics/SVG/1.1/DTD/svg11.dtd">
<!-- Creator: CorelDRAW X7 -->
<svg xmlns="http://www.w3.org/2000/svg" xml:space="preserve" width="259.529mm" height="296.999mm" version="1.1" shape-rendering="geometricPrecision" text-rendering="geometricPrecision" image-rendering="optimizeQuality" fill-rule="evenodd" clip-rule="evenodd"
viewBox="0 0 25953 29700"
 xmlns:xlink="http://www.w3.org/1999/xlink">
 <g id="Слой_x0020_1">
  <metadata id="CorelCorpID_0Corel-Layer"/>
  <g id="_431665376528">
   <g>
    <path fill="#515966" d="M24195 0l-22437 0c-969,0 -1758,789 -1758,1758l0 26184c0,969 789,1758 1758,1758l22437 0c969,0 1758,-789 1758,-1758l0 -26184c0,-969 -789,-1758 -1758,-1758zm-22788 1758c0,-194 157,-351 351,-351l22437 0c194,0 351,157 351,351l0 6097 -23139 0 0 -6097zm6775 26535l-6424 0c-194,0 -351,-157 -351,-351l0 -8463 6775 0 0 8814zm0 -10221l-6775 0 0 -8811 6775 0 0 8811zm8182 10221l-6775 0 0 -8814 6775 0 0 8814zm0 -10221l-6775 0 0 -8811 6775 0 0 8811zm8182 9870c0,194 -157,351 -351,351l-6424 0 0 -19032 6775 0 0 18681z"/>
   </g>
  </g>
  <g id="_431665378672">
   <g>
    <path fill="#515966" d="M6533 12964l-1035 0 0 -1036c0,-388 -315,-703 -704,-703 -388,0 -703,315 -703,703l0 1036 -1035 0c-389,0 -704,315 -704,703 0,388 315,703 704,703l1035 0 0 1036c0,388 315,703 703,703 389,0 704,-315 704,-703l0 -1036 1035 0c388,0 703,-315 703,-703 0,-388 -315,-703 -703,-703z"/>
   </g>
  </g>
  <g id="_431665378768">
   <g>
    <path fill="#515966" d="M14750 12964l-3547 0c-388,0 -703,315 -703,703 0,388 315,703 703,703l3547 0c388,0 703,-315 703,-703 0,-388 -315,-703 -703,-703z"/>
   </g>
  </g>
  <g id="_431665378864">
   <g>
    <path fill="#515966" d="M5789 23888l849 -849c274,-275 274,-720 0,-995 -275,-274 -720,-274 -995,0l-849 849 -849 -849c-274,-274 -720,-274 -994,0 -275,275 -275,720 0,995l849 849 -849 849c-275,275 -275,720 0,994 137,138 317,206 497,206 180,0 360,-68 497,-206l849 -848 849 848c138,138 317,206 497,206 180,0 360,-68 498,-206 274,-274 274,-719 0,-994l-849 -849z"/>
   </g>
  </g>
  <g id="_431665378448">
   <g>
    <path fill="#515966" d="M14820 22044c-275,-274 -720,-274 -995,0l-2692 2693c-275,275 -275,720 0,995 137,137 317,206 497,206 180,0 360,-69 497,-206l2693 -2693c274,-275 274,-720 0,-995z"/>
   </g>
  </g>
  <g id="_431665377936">
   <g>
    <circle fill="#515966" cx="11630" cy="22542" r="600"/>
   </g>
  </g>
  <g id="_431665380336">
   <g>
    <circle fill="#515966" cx="14323" cy="25234" r="600"/>
   </g>
  </g>
  <g id="_431665381104">
   <g>
    <path fill="#515966" d="M22935 16847l-3594 0c-389,0 -704,315 -704,703 0,388 315,703 704,703l3594 0c389,0 704,-315 704,-703 0,-388 -315,-703 -704,-703z"/>
   </g>
  </g>
  <g id="_431665380784">
   <g>
    <path fill="#515966" d="M22935 19301l-3594 0c-389,0 -704,315 -704,704 0,388 315,703 704,703l3594 0c389,0 704,-315 704,-703 0,-389 -315,-704 -704,-704z"/>
   </g>
  </g>
  <g id="_431665382480">
  </g>
  <g id="_431665382672">
  </g>
  <g id="_431665382768">
  </g>
  <g id="_431665383056">
  </g>
  <g id="_431665383472">
  </g>
  <g id="_431665381904">
  </g>
  <g id="_431665384368">
  </g>
  <g id="_431665384048">
  </g>
  <g id="_431665384816">
  </g>
  <g id="_431665385072">
  </g>
  <g id="_431665385616">
  </g>
  <g id="_431665385520">
  </g>
  <g id="_431665384528">
  </g>
  <g id="_431665386800">
  </g>
  <g id="_431665387056">
  </g>
 </g>
</svg>
