<?xml version="1.0" encoding="UTF-8"?>
<!DOCTYPE svg PUBLIC "-//W3C//DTD SVG 1.1//EN" "http://www.w3.org/Graphics/SVG/1.1/DTD/svg11.dtd">
<!-- Creator: CorelDRAW X7 -->
<svg xmlns="http://www.w3.org/2000/svg" xml:space="preserve" width="297mm" height="173.258mm" version="1.1" shape-rendering="geometricPrecision" text-rendering="geometricPrecision" image-rendering="optimizeQuality" fill-rule="evenodd" clip-rule="evenodd"
viewBox="0 0 29700 17326"
 xmlns:xlink="http://www.w3.org/1999/xlink">
 <g id="Слой_x0020_1">
  <metadata id="CorelCorpID_0Corel-Layer"/>
  <g id="_431670943216">
   <g>
    <g>
     <path fill="#515966" d="M9281 7425c-1023,0 -1856,833 -1856,1856 0,1024 833,1856 1856,1856 1024,0 1857,-832 1857,-1856 -1,-1023 -833,-1856 -1857,-1856zm0 2476c-341,0 -618,-278 -618,-620 0,-340 277,-618 618,-618 341,0 619,278 619,618 0,342 -278,620 -619,620z"/>
     <path fill="#515966" d="M9281 4950c-2392,0 -4331,1939 -4331,4331 0,2393 1939,4332 4331,4332 2392,0 4331,-1939 4331,-4332 0,-2392 -1939,-4331 -4331,-4331zm0 7425c-1706,0 -3094,-1388 -3094,-3094 0,-1706 1388,-3093 3094,-3093 1706,0 3094,1387 3094,3093 0,1706 -1388,3094 -3094,3094z"/>
     <path fill="#515966" d="M9281 3713c3,0 5,0 8,0 341,0 618,-277 618,-619 0,-342 -277,-619 -618,-619l-2 0c-2,0 -4,0 -6,0 -3759,0 -6806,3048 -6806,6806 0,161 6,320 17,477 -11,46 -17,94 -17,143 0,341 277,618 619,618 342,0 619,-277 619,-618l34 0c-23,-205 -34,-411 -34,-620 0,-1487 579,-2886 1631,-3937 1051,-1052 2450,-1631 3937,-1631z"/>
     <path fill="#515966" d="M29082 12375c-343,0 -620,277 -620,618l0 620 -9899 0 0 -4332c0,-2479 -966,-4809 -2719,-6562 -1753,-1753 -4084,-2719 -6563,-2719 -2479,0 -4809,966 -6563,2719 -1753,1753 -2718,4083 -2718,6562l0 8045 17944 0 619 0 10519 0c341,0 618,-278 618,-620l0 -928 0 -1547 0 -1238c0,-341 -277,-618 -618,-618zm-11758 1856l0 1857 -2489 0c0,-342 -277,-618 -619,-618l-9855 0c-342,0 -619,276 -619,618l-2504 0 0 -6807c0,-4435 3608,-8043 8043,-8043 4436,0 8043,3608 8043,8043l0 4950zm11138 1547l0 310 -618 0c0,-342 -278,-618 -618,-618 -343,0 -620,276 -620,618l-1237 0c0,-342 -277,-618 -620,-618 -340,0 -618,276 -618,618l-1238 0c0,-342 -276,-618 -618,-618 -342,0 -618,276 -618,618l-1238 0c0,-342 -278,-618 -618,-618 -343,0 -620,276 -620,618l-618 0 0 -1238 9899 0 0 928z"/>
    </g>
   </g>
  </g>
  <g id="_431670945808">
  </g>
  <g id="_431670944496">
  </g>
  <g id="_431670944112">
  </g>
  <g id="_431670947728">
  </g>
  <g id="_431670947216">
  </g>
  <g id="_431670947280">
  </g>
  <g id="_431670946864">
  </g>
  <g id="_431670946576">
  </g>
  <g id="_431670946512">
  </g>
  <g id="_431670947248">
  </g>
  <g id="_431670949232">
  </g>
  <g id="_431670948912">
  </g>
  <g id="_431670948656">
  </g>
  <g id="_431670948272">
  </g>
  <g id="_431670949808">
  </g>
 </g>
</svg>
