<?xml version="1.0" encoding="UTF-8"?>
<!DOCTYPE svg PUBLIC "-//W3C//DTD SVG 1.1//EN" "http://www.w3.org/Graphics/SVG/1.1/DTD/svg11.dtd">
<!-- Creator: CorelDRAW X7 -->
<svg xmlns="http://www.w3.org/2000/svg" xml:space="preserve" width="297mm" height="265.122mm" version="1.1" shape-rendering="geometricPrecision" text-rendering="geometricPrecision" image-rendering="optimizeQuality" fill-rule="evenodd" clip-rule="evenodd"
viewBox="0 0 29700 26512"
 xmlns:xlink="http://www.w3.org/1999/xlink">
 <g id="Слой_x0020_1">
  <metadata id="CorelCorpID_0Corel-Layer"/>
  <g id="_431665400208">
   <g>
    <path fill="#515966" d="M19750 15978l-204 -204c-242,-241 -634,-241 -875,0 -242,242 -242,634 0,875l204 205c121,120 279,181 437,181 159,0 317,-61 438,-182 242,-241 242,-633 0,-875z"/>
   </g>
  </g>
  <g id="_431665400752">
   <g>
    <path fill="#515966" d="M29700 8374c3,-168 -63,-330 -181,-449l-7745 -7744c-242,-241 -634,-241 -875,0l-3646 3646c-1339,-880 -3131,-725 -4306,450l-31 31 -4077 -4076c-241,-242 -633,-242 -875,0l-7783 7783c-116,116 -181,273 -181,437 0,164 65,322 181,438l4085 4084c-54,44 -106,90 -155,139l-1848 1848c-855,855 -855,2246 0,3101l192 192c414,414 965,642 1551,642 11,0 22,0 34,0 0,11 -1,22 -1,34 0,585 228,1136 642,1550l192 192c414,414 965,643 1551,643 11,0 23,-1 34,-1 0,11 -1,22 -1,34 0,586 228,1136 643,1551l191 191c414,415 965,643 1551,643 12,0 23,-1 35,-1 -8,573 205,1149 641,1585l192 192c414,414 965,642 1550,642 586,0 1137,-228 1551,-642l105 -106 427 427c440,440 1024,682 1646,682 622,0 1206,-242 1647,-682 303,-303 505,-670 605,-1057 346,196 738,301 1147,301 622,0 1207,-242 1647,-682 303,-303 504,-670 604,-1058 346,196 739,301 1147,301 622,0 1207,-242 1647,-682 302,-302 504,-669 604,-1057 346,196 738,301 1146,301 623,0 1208,-242 1647,-682 440,-440 682,-1025 682,-1646 0,-622 -242,-1207 -682,-1647l-3578 -3579 6251 -5827c123,-115 194,-274 197,-442zm-25019 9005c-180,181 -420,280 -675,280 -256,0 -495,-99 -676,-280l-192 -192c-372,-372 -372,-978 0,-1351l1848 -1848c84,-84 182,-150 290,-198 22,3 44,4 67,4 108,0 217,-29 313,-86 3,0 6,0 9,0 249,0 490,98 672,280l192 192c181,180 280,420 280,675 0,256 -99,496 -280,676l-1848 1848zm2418 2418c-180,181 -420,280 -675,280 -256,0 -495,-99 -676,-280l-192 -192c-180,-180 -280,-420 -280,-675 0,-255 100,-495 280,-676 0,0 0,0 1,0l1333 -1333c0,0 0,-1 0,-1 181,-180 420,-280 676,-280 255,0 495,100 675,280l192 193c181,180 280,419 280,675 0,255 -99,495 -280,675l-404 405c-7,6 -14,13 -21,20l-909 909zm2610 2226c0,0 0,0 0,1l-192 191c-180,181 -420,280 -675,280 -255,0 -495,-99 -676,-280l-192 -192c-180,-180 -280,-420 -280,-675 0,-255 100,-495 280,-676 0,0 0,0 0,0l920 -919c372,-362 973,-358 1341,10l192 191c372,373 372,979 0,1352l-717 717c0,0 -1,0 -1,0zm2596 2173c-45,90 -104,172 -177,245l-192 193c-373,372 -979,372 -1352,0l-191 -192c-373,-373 -373,-979 0,-1352l191 -191c0,0 0,0 1,-1 372,-372 978,-372 1351,0l192 192c292,292 363,736 177,1106zm13650 -5099c206,206 320,480 320,771 0,292 -114,566 -320,772 -206,206 -480,319 -772,319 -291,0 -565,-113 -771,-319l-977 -977c0,-1 -1,-1 -1,-1 0,-1 -1,-1 -1,-1 0,-1 -1,-1 -1,-1l-2358 -2358c-242,-242 -634,-242 -875,0 -242,241 -242,633 0,875l2358 2358c0,0 0,0 0,0 1,1 2,1 2,2 424,425 423,1117 -2,1541 -206,206 -480,320 -771,320 -291,0 -566,-114 -772,-320l-976 -976c-1,-1 -2,-1 -2,-2 -1,-1 -1,-1 -2,-2l-2906 -2906c-242,-241 -634,-241 -876,0 -241,242 -241,634 1,875l2906 2906c0,1 0,1 1,1 0,0 1,1 1,1 423,426 422,1117 -2,1542 -206,206 -480,319 -772,319 -291,0 -565,-113 -771,-320l-2907 -2906c-241,-241 -633,-241 -875,0 -241,242 -241,634 0,876l1922 1921c2,2 3,3 5,5 425,425 425,1117 0,1542 -206,207 -481,320 -772,320 -291,0 -565,-113 -771,-319l-643 -643c191,-740 -14,-1539 -572,-2097l-192 -192c-287,-287 -640,-484 -1024,-578 314,-790 153,-1727 -485,-2365l-192 -192c-341,-341 -769,-546 -1214,-614 35,-158 54,-321 54,-486 0,-586 -228,-1137 -642,-1551l-192 -192c-325,-325 -728,-526 -1149,-604 52,-188 79,-385 79,-586 0,-586 -228,-1136 -642,-1550l-192 -192c-454,-455 -1068,-680 -1694,-637l-4024 -4024 6908 -6908 3639 3639 -2265 2264c-439,439 -681,1024 -681,1646 0,622 242,1207 681,1647 440,440 1025,682 1647,682 622,0 1207,-242 1647,-682l2264 -2264 6589 6589c0,0 0,0 0,0l4032 4032zm-3579 -5330l-7242 -7241c-242,-242 -634,-242 -875,0 -242,242 -242,633 0,875l200 200 -2265 2264c-205,206 -479,320 -771,320 -291,0 -565,-114 -771,-319 -206,-207 -319,-481 -319,-773 0,-291 113,-565 318,-771l2702 -2701c0,0 0,0 0,0 1,0 1,0 1,-1l468 -468c845,-845 2188,-867 3057,-51 18,17 35,34 52,51l1774 1773c242,242 634,242 875,0 242,-241 242,-633 0,-875l-1400 -1400 3156 -3156 6855 6853 -5815 5420z"/>
   </g>
  </g>
  <g id="_431665404240">
  </g>
  <g id="_431665402800">
  </g>
  <g id="_431665403792">
  </g>
  <g id="_431665403216">
  </g>
  <g id="_431665403824">
  </g>
  <g id="_431665402608">
  </g>
  <g id="_431665402512">
  </g>
  <g id="_431665406096">
  </g>
  <g id="_431665405008">
  </g>
  <g id="_431665405552">
  </g>
  <g id="_431665406256">
  </g>
  <g id="_431665406160">
  </g>
  <g id="_431665404944">
  </g>
  <g id="_431665405776">
  </g>
  <g id="_431665408016">
  </g>
 </g>
</svg>
