<?xml version="1.0" encoding="UTF-8"?>
<!DOCTYPE svg PUBLIC "-//W3C//DTD SVG 1.1//EN" "http://www.w3.org/Graphics/SVG/1.1/DTD/svg11.dtd">
<!-- Creator: CorelDRAW X7 -->
<svg xmlns="http://www.w3.org/2000/svg" xml:space="preserve" width="230.12mm" height="297mm" version="1.1" shape-rendering="geometricPrecision" text-rendering="geometricPrecision" image-rendering="optimizeQuality" fill-rule="evenodd" clip-rule="evenodd"
viewBox="0 0 21465 27703"
 xmlns:xlink="http://www.w3.org/1999/xlink">
 <g id="Слой_x0020_1">
  <metadata id="CorelCorpID_0Corel-Layer"/>
  <g id="_432137312992">
   <g>
    <g>
     <g>
      <path fill="#515966" d="M14673 8131l0 -2715c0,-682 -555,-1238 -1238,-1238l-5405 0c-683,0 -1238,556 -1238,1238l0 2716c0,682 555,1238 1238,1238l5405 0c683,0 1238,-556 1238,-1239zm-7006 0l0 -2715c0,-200 163,-363 363,-363l5405 0c200,0 363,163 363,363l0 2716c0,200 -163,363 -363,363l-5405 0c-200,0 -363,-163 -363,-364z"/>
      <path fill="#515966" d="M8985 12656l0 -1601c0,-242 -196,-438 -438,-438 -241,0 -437,196 -437,438l0 1601c0,242 196,438 437,438 242,0 438,-196 438,-438z"/>
      <path fill="#515966" d="M10732 10617c-241,0 -437,196 -437,438l0 1601c0,242 196,438 437,438 242,0 438,-196 438,-438l0 -1601c0,-242 -196,-438 -438,-438z"/>
      <path fill="#515966" d="M12918 10617c-242,0 -438,196 -438,438l0 1601c0,242 196,438 438,438 241,0 437,-196 437,-438l0 -1601c0,-242 -196,-438 -437,-438z"/>
      <path fill="#515966" d="M20009 17971c-1047,-1357 -2570,-2074 -4405,-2074l-1739 0 -510 0 0 -435 423 0c1656,0 3003,-1347 3003,-3002l0 -9786 0 -1239c-1,-791 -644,-1435 -1435,-1435l-9227 0c-791,0 -1435,644 -1435,1435l0 1239 0 9786c0,1655 1347,3002 3003,3002l423 0 0 435 -510 0 -1739 0c-1835,0 -3358,717 -4405,2074 -952,1236 -1456,2918 -1456,4865l0 3730c0,627 510,1137 1137,1137l6302 0c241,0 437,-195 437,-437 0,-242 -196,-437 -437,-437l-2267 0 0 -2916 1016 -1144c72,-80 111,-183 111,-290l0 -5708 864 0 0 5433c0,241 195,437 437,437l6265 0c242,0 437,-196 437,-437l0 -5433 864 0 0 5708c0,107 40,210 111,290l1016 1144 0 2916 -7338 0c-242,0 -437,195 -437,437 0,242 196,437 437,437l11373 0c627,0 1137,-510 1137,-1137l0 -3730c0,-1946 -504,-3629 -1456,-4865zm-14585 4341l-252 284 0 -36c0,-242 -195,-438 -437,-438 -242,0 -437,196 -437,438l0 1187 0 3082 -3161 0c-144,0 -262,-118 -262,-263l0 -3730c0,-2684 1202,-5799 4549,-6048l0 5524 0 0zm2263 -7725c-1173,0 -2128,-954 -2128,-2127l0 -9348 7420 0c242,0 438,-196 438,-438 0,-241 -196,-437 -438,-437l-7420 0 0 -802c0,-19 1,-38 3,-57 29,-282 268,-503 558,-503l9226 0c289,0 528,221 557,503 2,19 3,38 3,57l0 802 -1469 0c-241,0 -437,196 -437,437 0,242 196,438 437,438l1469 0 0 9348c0,1173 -955,2127 -2128,2127l-860 0 -4371 0 -860 0zm4793 875l0 872c0,964 -784,1748 -1747,1748 -964,0 -1748,-784 -1748,-1748l0 -872 3495 0zm948 6304l-5390 0 0 -4995 108 0c209,1239 1289,2186 2586,2186 1298,0 2378,-947 2587,-2186l108 0 0 4995 1 0zm6900 5063l-3161 0 0 -3082 0 -1187c0,-242 -195,-438 -437,-438 -242,0 -437,196 -437,438l0 36 -252 -284 0 -5524c3347,249 4549,3364 4549,6048l0 3730 0 0c0,145 -118,263 -262,263z"/>
     </g>
    </g>
   </g>
   <g>
   </g>
   <g>
   </g>
   <g>
   </g>
   <g>
   </g>
   <g>
   </g>
   <g>
   </g>
   <g>
   </g>
   <g>
   </g>
   <g>
   </g>
   <g>
   </g>
   <g>
   </g>
   <g>
   </g>
   <g>
   </g>
   <g>
   </g>
   <g>
   </g>
  </g>
  <g id="_432137320064">
  </g>
  <g id="_432137319040">
  </g>
  <g id="_432137321856">
  </g>
  <g id="_432137321120">
  </g>
  <g id="_432137321984">
  </g>
  <g id="_432137320896">
  </g>
  <g id="_432137321376">
  </g>
  <g id="_432137321888">
  </g>
  <g id="_432137321664">
  </g>
  <g id="_432137323296">
  </g>
  <g id="_432137324544">
  </g>
  <g id="_432137323360">
  </g>
  <g id="_432137323808">
  </g>
  <g id="_432137323904">
  </g>
  <g id="_432137324288">
  </g>
 </g>
</svg>
