<?xml version="1.0" encoding="UTF-8"?>
<!DOCTYPE svg PUBLIC "-//W3C//DTD SVG 1.1//EN" "http://www.w3.org/Graphics/SVG/1.1/DTD/svg11.dtd">
<!-- Creator: CorelDRAW X7 -->
<svg xmlns="http://www.w3.org/2000/svg" xml:space="preserve" width="296.998mm" height="297mm" version="1.1" shape-rendering="geometricPrecision" text-rendering="geometricPrecision" image-rendering="optimizeQuality" fill-rule="evenodd" clip-rule="evenodd"
viewBox="0 0 29700 29700"
 xmlns:xlink="http://www.w3.org/1999/xlink">
 <g id="Слой_x0020_1">
  <metadata id="CorelCorpID_0Corel-Layer"/>
  <g id="_432083332480">
   <g>
    <path fill="#515966" d="M29261 9981l-2117 -2117c-585,-585 -1533,-585 -2118,0l-11648 11647c-165,165 -289,365 -362,586l-1059 3176c-53,160 -70,324 -68,487l-1480 0 -7439 0 0 1485 7836 0 2559 0 0 -9c163,1 327,-15 486,-69l3177 -1059c220,-73 421,-197 585,-361l11648 -11648c585,-584 585,-1533 0,-2118zm-15883 13766l1059 -3176 2117 2117 -3176 1059zm4236 -2117l-2119 -2119 10590 -10589 2118 2118 -10589 10590z"/>
   </g>
  </g>
  <g id="_432083334208">
   <g>
    <rect fill="#515966" x="16937" y="4455" width="5338" height="1485"/>
   </g>
  </g>
  <g id="_432083335008">
   <g>
    <rect fill="#515966" x="3242" y="4455" width="9291" height="1485"/>
   </g>
  </g>
  <polygon fill="#515966" points="3242,16978 13458,16978 14738,15493 3242,15493 "/>
  <g id="_432083333504">
   <g>
    <path fill="#515966" d="M2970 19305l0 1485 8250 0 387 -1163c38,-114 101,-215 152,-322l-8789 0z"/>
   </g>
  </g>
  <polygon fill="#515966" points="3185,8910 3185,10395 20394,10395 21879,8910 "/>
  <g id="_432083336224">
   <g>
    <path fill="#515966" d="M23976 6813c358,-358 796,-601 1269,-739l0 -6074 -25245 0 0 29700 25245 0 0 -11484 -1485 1485 0 8514 -22275 0 0 -26730 22275 0 0 5544 216 -216z"/>
   </g>
  </g>
  <g id="_432083335648">
  </g>
  <g id="_432083337056">
  </g>
  <g id="_432083336288">
  </g>
  <g id="_432083336608">
  </g>
  <g id="_432083336960">
  </g>
  <g id="_432083337920">
  </g>
  <g id="_432083339264">
  </g>
  <g id="_432083338624">
  </g>
  <g id="_432083339136">
  </g>
  <g id="_432083338240">
  </g>
  <g id="_432083337664">
  </g>
  <g id="_432083337760">
  </g>
  <g id="_432083338848">
  </g>
  <g id="_432083340544">
  </g>
  <g id="_432083341120">
  </g>
 </g>
</svg>
