<?xml version="1.0" encoding="UTF-8"?>
<!DOCTYPE svg PUBLIC "-//W3C//DTD SVG 1.1//EN" "http://www.w3.org/Graphics/SVG/1.1/DTD/svg11.dtd">
<!-- Creator: CorelDRAW X7 -->
<svg xmlns="http://www.w3.org/2000/svg" xml:space="preserve" width="238.735mm" height="298.798mm" version="1.1" shape-rendering="geometricPrecision" text-rendering="geometricPrecision" image-rendering="optimizeQuality" fill-rule="evenodd" clip-rule="evenodd"
viewBox="0 0 23869 29874"
 xmlns:xlink="http://www.w3.org/1999/xlink">
 <g id="Слой_x0020_1">
  <metadata id="CorelCorpID_0Corel-Layer"/>
  <g id="_431655715152">
   <path fill="#FFBA00" d="M23780 261c-105,-162 -273,-261 -464,-261l-6571 0c-209,0 -406,122 -499,313l-4118 8659c-127,0 -255,0 -383,0l-4117 -8659c-93,-191 -285,-313 -499,-313l-6577 0c-186,0 -360,99 -464,261 -104,162 -116,360 -35,528l5087 10700c-2326,1995 -3660,4883 -3660,7934 0,5759 4686,10451 10451,10451 5759,0 10451,-4686 10451,-10451 0,-1838 -481,-3642 -1398,-5225 -98,-169 -278,-273 -475,-273 -99,0 -192,23 -273,75 -128,76 -220,192 -255,337 -41,145 -18,290 58,417 818,1415 1253,3028 1253,4675 0,5156 -4194,9349 -9349,9349 -5156,0 -9349,-4193 -9349,-9349 0,-5156 4193,-9349 9349,-9349 2731,0 5324,1195 7104,3271 105,122 255,191 418,191 0,0 0,0 0,0 133,0 261,-46 359,-133 226,-192 255,-551 58,-777 -348,-412 -736,-795 -1148,-1149l5086 -10694c76,-168 64,-366 -40,-528zm-5719 841l-3862 8119c-296,-63 -598,-116 -899,-156l3787 -7957 974 0 0 -6zm2192 0l-4152 8734c-267,-116 -545,-220 -824,-319l4002 -8415 974 0zm2193 0l-4611 9691c-244,-168 -493,-325 -748,-470l4390 -9227 969 0 0 6zm-15659 9227c-256,145 -505,302 -748,470l-4611 -9697 974 0 4385 9227zm1809 -812c-278,93 -551,203 -823,319l-4153 -8734 974 0 4002 8415zm1972 -458c-302,41 -603,93 -899,157l-3857 -8114 975 0 3781 7957z"/>
   <path fill="#FFBA00" d="M7152 25797c1392,1044 3045,1595 4785,1595 4396,0 7974,-3579 7974,-7975 0,-4396 -3578,-7974 -7974,-7974 -4396,0 -7975,3578 -7975,7974 0,1740 551,3399 1595,4785 105,139 267,220 441,220 122,0 232,-40 330,-110 244,-180 290,-528 111,-771 -899,-1195 -1375,-2622 -1375,-4124 0,-3787 3086,-6872 6873,-6872 3787,0 6872,3085 6872,6872 0,3787 -3085,6873 -6872,6873 -1502,0 -2929,-476 -4124,-1375 -98,-69 -209,-110 -330,-110 -174,0 -337,81 -441,220 -186,244 -134,592 110,772z"/>
   <path fill="#FFBA00" d="M16913 18367c-76,-226 -284,-382 -522,-382l-3004 0 -928 -2854c-76,-226 -290,-383 -522,-383 -238,0 -453,157 -522,383l-928 2854 -3004 0c-232,0 -447,150 -522,371 -82,226 0,487 197,626l2430 1763 -928 2854c-70,220 0,458 186,603 98,75 214,116 342,116 116,0 232,-35 324,-105l2431 -1763 2430 1763c92,70 203,105 324,105 0,0 0,0 0,0 134,0 267,-47 366,-139 162,-145 226,-377 156,-580l-928 -2854 2430 -1763c186,-139 267,-388 192,-615zm-3799 2338l528 1624 -1380 -1004c-93,-69 -203,-104 -325,-104 -116,0 -232,35 -325,104l-1380 1004 527 -1624c76,-226 -5,-476 -203,-615l-1380 -1003 1705 0c238,0 453,-151 522,-383l528 -1624 528 1624c75,226 284,383 522,383l1705 0 -1381 1003c-185,139 -266,389 -191,615z"/>
  </g>
 </g>
</svg>
