<?xml version="1.0" encoding="UTF-8"?>
<!DOCTYPE svg PUBLIC "-//W3C//DTD SVG 1.1//EN" "http://www.w3.org/Graphics/SVG/1.1/DTD/svg11.dtd">
<!-- Creator: CorelDRAW X7 -->
<svg xmlns="http://www.w3.org/2000/svg" xml:space="preserve" width="277.277mm" height="284.296mm" version="1.1" shape-rendering="geometricPrecision" text-rendering="geometricPrecision" image-rendering="optimizeQuality" fill-rule="evenodd" clip-rule="evenodd"
viewBox="0 0 27739 28442"
 xmlns:xlink="http://www.w3.org/1999/xlink">
 <g id="Слой_x0020_1">
  <metadata id="CorelCorpID_0Corel-Layer"/>
  <path fill="#FFBA00" d="M26654 18652c-673,-424 -1538,-465 -2252,-117l-5072 2461 0 -267c0,-1282 -986,-2298 -2269,-2298l-4909 0c-1004,0 -2025,-168 -2983,-464l-3197 -993 0 -1288c0,-412 -273,-760 -685,-760l-4480 0c-412,0 -807,348 -807,760l0 11868c0,412 395,731 807,731l4480 0c412,0 685,-319 685,-731l0 -1196 533 401c1353,1091 3088,1683 4823,1683l4317 0c1544,0 3036,-453 4312,-1324l6784 -4625c627,-429 998,-1131 998,-1892 -5,-800 -412,-1526 -1085,-1949zm-22180 8141l-2983 0 0 -10376 2989 0 0 10376 -6 0zm21414 -5536l-6784 4625c-1027,702 -2222,1062 -3470,1062l-4318 0c-1398,0 -2797,-476 -3888,-1352l-1456 -1149 0 -5908 2756 859c1103,343 2275,528 3424,528l4909 0c465,0 778,343 778,807l0 905c-894,244 -2994,679 -5113,337 -406,-64 -777,209 -841,621 -64,412 220,789 627,853 650,104 1294,145 1903,145 2403,0 4341,-644 4469,-691 0,0 0,0 0,0 0,0 0,0 5,0 29,-11 53,-23 82,-34 0,0 5,0 5,0l6117 -2983c255,-122 534,-110 772,40 238,151 377,395 377,679 -6,262 -133,505 -354,656z"/>
  <path fill="#FFBA00" d="M1137 9807c674,424 1486,465 2200,116l5020 -2460 0 267c0,1282 1085,2344 2367,2344l4910 0c1004,0 1979,145 2936,441l3151 975 0 1289c0,412 372,731 784,731l4480 0c412,0 708,-319 708,-731l0 -11868c0,-412 -296,-760 -708,-760l-4480 0c-412,0 -784,348 -784,760l0 1196 -481 -412c-1358,-1091 -3041,-1695 -4776,-1695l-4318 0c-1544,0 -3035,464 -4312,1335l-6778 4637c-627,429 -998,1137 -998,1891 0,795 406,1527 1079,1944zm22076 -8165l2988 0 0 10376 -2988 0 0 -10376zm-21310 5566l6784 -4637c1028,-702 2223,-1080 3471,-1080l4317 0c1399,0 2745,488 3836,1364l1422 1161 0 5907 -2710 -835c-1103,-343 -2223,-505 -3378,-505l-4915 0c-464,0 -876,-395 -876,-853l0 -905c969,-244 3041,-679 5165,-337 406,64 801,-209 864,-621 64,-406 -209,-789 -615,-853 -3197,-517 -6203,487 -6366,545 0,0 0,0 0,0 0,0 0,0 0,0 -17,6 -29,12 -40,18 -12,6 -30,11 -41,17l-6117 2989c-255,122 -534,110 -772,-41 -237,-151 -377,-394 -377,-679 -6,-261 128,-510 348,-655z"/>
 </g>
</svg>
