<?xml version="1.0" encoding="UTF-8"?>
<!DOCTYPE svg PUBLIC "-//W3C//DTD SVG 1.1//EN" "http://www.w3.org/Graphics/SVG/1.1/DTD/svg11.dtd">
<!-- Creator: CorelDRAW X7 -->
<svg xmlns="http://www.w3.org/2000/svg" xml:space="preserve" width="297mm" height="288.209mm" version="1.1" shape-rendering="geometricPrecision" text-rendering="geometricPrecision" image-rendering="optimizeQuality" fill-rule="evenodd" clip-rule="evenodd"
viewBox="0 0 29700 28821"
 xmlns:xlink="http://www.w3.org/1999/xlink">
 <g id="Слой_x0020_1">
  <metadata id="CorelCorpID_0Corel-Layer"/>
  <g id="_432205997840">
   <g>
    <path fill="#FFBA00" d="M28041 14945l-23 0 0 -4890 0 -3886c0,-366 -296,-661 -662,-661l-3486 0 -2604 -5146c-82,-156 -215,-272 -383,-330 -168,-53 -348,-41 -505,40l-10749 5436 -6949 0c-1450,0 -2622,1131 -2680,2575 0,0 0,6 0,6 0,0 0,6 0,6 0,29 0,64 0,93l0 17953c0,1479 1201,2680 2680,2680l24676 0c366,0 662,-296 662,-661l0 -5099 23 0c917,0 1659,-743 1659,-1659l0 -4792c0,-916 -742,-1665 -1659,-1665zm-1346 -8115l0 2564 -853 0 -1299 -2564 2152 0zm-16613 -69c0,0 0,0 0,0l10302 -5210 2488 4920c0,0 0,0 0,0l1480 2929 -1282 0c-6,-23 -18,-46 -29,-70l-1706 -3364c-133,-261 -423,-406 -713,-354l-203 41c-778,150 -1572,-203 -1984,-876l-134 -215c-179,-296 -556,-400 -864,-244l-10047 5082 -2517 0 5209 -2639zm11514 2633l-11271 0 7193 -3637c679,870 1764,1340 2866,1230l1212 2407zm-18916 -2564l4333 0 -4861 2460c-371,-157 -661,-482 -771,-870 0,-6 0,-6 -6,-12 -6,-23 -12,-52 -18,-75 -5,-24 -11,-47 -11,-70 -6,-17 -6,-35 -6,-52 -6,-29 -6,-64 -6,-99 35,-725 621,-1282 1346,-1282zm24015 20663l-24015 0c-748,0 -1357,-610 -1357,-1358l0 -307 20215 0c366,0 662,-296 662,-662 0,-365 -296,-661 -662,-661l-20215 0 0 -14154c261,157 556,261 870,319 0,0 6,0 6,0 0,0 0,0 0,0 5,0 11,0 17,6 0,0 0,0 0,0 6,0 12,0 17,0 41,6 76,12 116,17 6,0 18,0 24,0 0,0 0,0 0,0 17,0 34,6 58,6 29,0 52,6 81,6 6,0 11,0 23,0 52,6 99,6 151,6l4872 0 14485 0 3399 0 1265 0 0 1462 -20402 0c-365,0 -661,296 -661,661 0,365 296,661 661,661l20390 0 0 1450 -9571 0c-366,0 -661,296 -661,662l0 6787c0,365 295,661 661,661l9571 0 0 4438zm1346 -5755l-685 0 -9571 0 0 -5464 9571 0 685 0c186,0 336,151 336,336l0 4792 0 0c0,180 -150,336 -336,336z"/>
   </g>
  </g>
  <g id="_432205997744">
   <g>
    <path fill="#FFBA00" d="M21074 16506c-1375,0 -2500,1119 -2500,2500 0,1375 1120,2500 2500,2500 1381,0 2500,-1119 2500,-2500 0,-1381 -1125,-2500 -2500,-2500zm0 3672c-649,0 -1177,-528 -1177,-1178 0,-649 528,-1172 1177,-1172 650,0 1172,528 1172,1172 0,650 -528,1178 -1172,1178z"/>
   </g>
  </g>
  <g id="_432205998000">
   <g>
    <path fill="#FFBA00" d="M24201 25039c-6,-41 -23,-87 -35,-122 -17,-41 -35,-81 -58,-116 -23,-35 -52,-70 -81,-99 -157,-150 -383,-226 -598,-179 -40,5 -81,23 -121,34 -41,18 -76,35 -116,58 -35,24 -70,53 -99,82 -29,29 -58,63 -81,98 -23,35 -47,76 -58,116 -18,41 -29,81 -35,122 -6,41 -12,87 -12,128 0,40 6,87 12,127 6,41 23,81 35,122 17,41 34,75 58,116 23,35 52,70 81,99 29,29 64,58 99,81 34,23 75,46 116,58 40,17 81,29 121,35 41,6 87,11 128,11 41,0 87,-5 128,-11 40,-6 81,-23 121,-35 41,-17 76,-35 116,-58 35,-23 70,-52 99,-81 29,-29 58,-64 81,-99 23,-35 47,-75 58,-116 18,-41 29,-81 35,-122 6,-40 12,-87 12,-127 5,-35 0,-82 -6,-122z"/>
   </g>
  </g>
  <g id="_432205999184">
   <g>
    <path fill="#FFBA00" d="M4942 12712c-6,-40 -23,-81 -40,-122 -18,-40 -35,-75 -58,-116 -24,-34 -53,-69 -82,-98 -29,-29 -63,-58 -98,-81 -35,-24 -76,-47 -116,-59 -41,-17 -81,-29 -122,-34 -87,-18 -174,-18 -261,0 -41,5 -81,23 -122,34 -40,18 -81,35 -116,59 -35,23 -69,52 -98,81 -29,29 -59,64 -82,98 -23,35 -46,76 -58,116 -11,41 -29,82 -40,122 -6,41 -12,87 -12,128 0,46 6,87 12,127 5,41 23,82 40,122 18,41 35,76 58,116 23,35 53,70 82,99 29,29 63,58 98,81 35,23 76,46 116,58 41,17 81,29 122,35 41,6 87,11 128,11 40,0 87,-5 127,-11 41,-6 81,-23 122,-35 41,-17 75,-35 116,-58 35,-23 70,-52 99,-81 29,-29 58,-64 81,-99 23,-35 46,-75 58,-116 11,-40 29,-81 40,-122 6,-40 12,-87 12,-127 6,-47 0,-87 -6,-128z"/>
   </g>
  </g>
 </g>
</svg>
