<?xml version="1.0" encoding="UTF-8"?>
<!DOCTYPE svg PUBLIC "-//W3C//DTD SVG 1.1//EN" "http://www.w3.org/Graphics/SVG/1.1/DTD/svg11.dtd">
<!-- Creator: CorelDRAW X7 -->
<svg xmlns="http://www.w3.org/2000/svg" xml:space="preserve" width="79.0711mm" height="16.5832mm" version="1.1" shape-rendering="geometricPrecision" text-rendering="geometricPrecision" image-rendering="optimizeQuality" fill-rule="evenodd" clip-rule="evenodd"
viewBox="0 0 7927 1663"
 xmlns:xlink="http://www.w3.org/1999/xlink">
 <g id="Слой_x0020_1">
  <metadata id="CorelCorpID_0Corel-Layer"/>
  <path fill="#FFBA00" d="M6377 1010c-5,30 5,50 20,80 5,10 10,15 15,25 20,35 35,70 75,80 15,5 100,-15 115,-20 25,35 100,70 105,85 0,5 0,80 5,100 10,45 80,55 135,70 75,20 85,0 130,-80 15,-25 15,-20 45,-25 30,0 50,-5 80,-10 25,-5 20,0 65,40 50,40 50,50 125,10l45 -25c35,-25 75,-45 60,-95 -5,-10 -5,-15 -5,-25 -15,-85 -15,-45 35,-110l-115 -85c0,5 -5,5 -5,10 -20,20 -25,35 -50,55 -135,105 -295,130 -450,50 -25,-15 -45,-30 -70,-45 -120,-95 -180,-270 -140,-420 10,-30 25,-60 35,-85 20,-40 60,-90 95,-120l30 -25c25,-15 50,-35 80,-45 25,-10 60,-20 90,-25 25,-5 50,-5 80,-5 70,5 90,10 155,35 75,35 30,45 120,-10 20,-15 45,-25 60,-45 -75,-70 -60,-5 -65,-105 0,-25 0,-50 -10,-65 -20,-30 -90,-40 -135,-50 -75,-20 -80,15 -125,80 -25,40 -25,15 -125,35 -15,5 -15,5 -25,0l-35 -35c-55,-50 -60,-55 -150,0 -45,25 -70,35 -80,80 -5,20 25,100 20,115 0,5 -40,45 -45,60 -10,10 -15,20 -25,35 -10,15 -20,10 -35,15 -125,5 -110,-5 -150,140 -20,80 5,85 80,130 40,25 10,20 30,100 15,60 20,30 -50,110 -30,-5 -35,0 -40,15l0 0z"/>
  <path fill="#4D4D4D" d="M35 1505l190 -200 370 0 0 -1235 440 385 445 -385 0 1125 -200 0 0 -760 -245 255 -240 -255 0 865 0 200 -760 0 0 5zm6387 -195l-1986 0 0 -1235 -445 385 -440 -385 0 1135 200 0 0 -765 240 255 245 -255 0 865 0 0 0 200 2376 0 -190 -200zm-4201 -100l230 0 -445 -830 0 0 0 0 0 0 0 0 -451 830 230 0 60 -120 316 0 60 120zm-290 -275l75 -145 75 145 -150 0zm1485 275l0 -830 -200 0 0 560 -135 0 0 -560 -200 0 0 560 -150 0 0 -560 -200 0 0 830 885 0zm1760 0l230 0 -445 -830 0 0 0 0 0 0 0 0 -445 830 230 0 60 -120 315 0 55 120zm-295 -275l75 -145 75 145 -150 0zm1166 275l280 0 -430 -450 380 -380 -280 0 -330 330 0 -330 -201 0 0 830 201 0 0 -220 90 -90 290 310z"/>
  <rect fill="#4D4D4D" x="1280" y="1310" width="2466" height="200"/>
  <rect fill="#FEFEFE" y="1385" width="6611.76" height="40.0109"/>
  <path fill="#676766" d="M7287 20c50,15 100,35 145,60 -5,15 -35,100 -35,110 0,10 5,15 15,25 50,35 95,70 140,110 15,15 25,35 45,25l70 -35c5,-5 20,-10 25,-15 5,5 20,25 25,30 10,15 15,25 25,40 15,20 25,45 35,65l15 25c5,10 10,25 15,35 5,10 25,60 25,70 -10,5 -25,15 -35,20 -15,10 -45,25 -60,30 -10,5 -15,15 -15,25 5,30 10,55 15,85 5,40 5,80 5,120 0,10 0,20 15,25 10,5 95,30 110,35 -10,90 -45,200 -85,280 -25,-10 -50,-15 -75,-25 -30,-10 -45,-20 -60,5 -35,55 -65,95 -110,140 -5,5 -15,15 -20,20 -10,10 -10,20 -5,25 0,0 50,90 50,95 -5,5 -25,15 -30,25 -15,10 -45,30 -60,40 -5,5 -10,5 -15,10l-15 10c-5,5 -10,5 -15,10 -5,5 -10,5 -15,5 -20,10 -45,20 -65,30 -5,0 -10,5 -15,5 -5,0 -15,5 -20,5 -5,-5 -20,-40 -25,-50 -40,-75 -25,-65 -80,-55 -60,10 -115,15 -180,15 -10,0 -20,0 -25,15 -5,10 -30,90 -35,110 -50,-5 -100,-15 -150,-35l-15 40 35 10 5 0c20,5 60,15 85,20 15,5 55,10 65,5 5,-5 10,-5 15,-15l35 -105c5,0 10,0 15,0 10,0 25,0 35,0 10,0 15,0 25,0 10,0 15,0 25,0l25 -5c10,0 15,-5 25,-5l35 -5c5,0 5,0 10,0 5,5 40,75 45,85 10,20 15,30 40,25 5,0 5,0 5,0 5,0 5,-5 10,-5 5,0 5,0 10,-5l45 -15c5,0 5,-5 10,-5l15 -5c5,0 5,0 5,0 20,-5 55,-25 70,-35 15,-5 25,-15 35,-20 20,-15 45,-30 60,-45l25 -15c0,0 5,-5 5,-5 10,-5 10,-15 5,-25 -5,-10 -50,-95 -50,-100l50 -50c5,-5 5,-5 10,-10 5,-5 5,-5 5,-10 10,-15 30,-35 35,-50 5,-5 5,-5 5,-10 5,-5 15,-15 15,-20l105 35c15,5 25,-5 35,-20 10,-20 20,-40 30,-65 10,-20 15,-45 25,-65l15 -50c5,-25 15,-60 20,-85 5,-15 5,-30 5,-45 0,-15 0,-30 -15,-35l-105 -35c5,-5 0,-15 0,-25 0,-5 0,-10 0,-15 0,-5 0,-5 0,-15 0,-25 -5,-50 -5,-70 -5,-20 -5,-40 -10,-55 0,-5 0,-5 0,-10 5,-5 20,-10 25,-15l70 -35c10,-5 15,-15 10,-25 -5,-30 -20,-55 -30,-80 -5,-15 -15,-35 -20,-45 0,-5 -5,-5 -5,-10 -5,-5 -5,-15 -10,-20 -5,-10 -10,-15 -15,-25l-15 -30c-5,-10 -15,-25 -20,-35 -5,-5 -5,-5 -5,-10 -5,-10 -20,-25 -25,-35 -5,-5 -10,-15 -15,-15 -15,-5 -25,5 -30,10 -10,5 -20,10 -30,15 -10,5 -20,10 -30,15 -5,5 -25,15 -30,15l-50 -50c-5,-5 -5,-5 -10,-5 -20,-15 -35,-30 -55,-45 -5,-5 -25,-20 -35,-20l35 -105c5,-20 -5,-25 -20,-35 -15,-5 -25,-15 -45,-20 -5,-5 -15,-5 -20,-10 -25,-10 -45,-20 -70,-25l-25 -10 -35 20z"/>
 </g>
</svg>
