<?xml version="1.0" encoding="UTF-8"?>
<!DOCTYPE svg PUBLIC "-//W3C//DTD SVG 1.1//EN" "http://www.w3.org/Graphics/SVG/1.1/DTD/svg11.dtd">
<!-- Creator: CorelDRAW X7 -->
<svg xmlns="http://www.w3.org/2000/svg" xml:space="preserve" width="296.979mm" height="297.043mm" version="1.1" shape-rendering="geometricPrecision" text-rendering="geometricPrecision" image-rendering="optimizeQuality" fill-rule="evenodd" clip-rule="evenodd"
viewBox="0 0 29700 29706"
 xmlns:xlink="http://www.w3.org/1999/xlink">
 <g id="Слой_x0020_1">
  <metadata id="CorelCorpID_0Corel-Layer"/>
  <g id="_432395010544">
   <g>
    <path fill="#43464B" d="M22582 19649c-969,-958 -2181,-958 -3144,0 -737,731 -1474,1456 -2193,2198 -197,203 -366,250 -603,111 -476,-262 -981,-470 -1439,-755 -2135,-1340 -3916,-3063 -5500,-5006 -783,-963 -1485,-1996 -1972,-3156 -99,-232 -81,-389 110,-580 737,-714 1450,-1439 2176,-2170 1009,-1015 1009,-2198 -6,-3219 -575,-580 -1149,-1149 -1723,-1729 -592,-592 -1178,-1195 -1781,-1781 -969,-946 -2181,-946 -3144,6 -755,725 -1462,1473 -2216,2193 -702,661 -1051,1473 -1126,2419 -116,1537 261,2993 789,4409 1091,2929 2744,5534 4751,7918 2715,3220 5952,5772 9746,7617 1706,830 3475,1468 5395,1572 1323,76 2472,-261 3394,-1293 632,-702 1340,-1346 2007,-2019 986,-1004 998,-2210 12,-3202 -1172,-1184 -2355,-2362 -3533,-3533z"/>
    <path fill="#43464B" d="M21398 14723l2280 -388c-359,-2094 -1346,-3991 -2848,-5500 -1590,-1589 -3597,-2587 -5807,-2900l-319 2291c1711,244 3272,1015 4502,2245 1154,1160 1914,2634 2192,4252z"/>
    <path fill="#43464B" d="M24966 4809c-2634,-2634 -5963,-4298 -9641,-4809l-319 2291c3173,447 6050,1886 8330,4154 2158,2158 3574,4885 4084,7878l2280 -389c-598,-3469 -2239,-6624 -4734,-9125z"/>
   </g>
  </g>
 </g>
</svg>
